<mxfile host="app.diagrams.net" agent="Mozilla/5.0 (X11; Ubuntu; Linux x86_64; rv:129.0) Gecko/20100101 Firefox/129.0" version="24.7.7">
  <diagram id="1n_pBzeDh9LxIQTw4yuW" name="Page-1">
    <mxGraphModel dx="1362" dy="795" grid="1" gridSize="10" guides="1" tooltips="1" connect="1" arrows="1" fold="1" page="1" pageScale="1" pageWidth="850" pageHeight="1100" math="0" shadow="0">
      <root>
        <mxCell id="0" />
        <mxCell id="1" parent="0" />
        <mxCell id="CQxPOnlC6T6cqwi_Hm7u-1" style="edgeStyle=orthogonalEdgeStyle;rounded=0;orthogonalLoop=1;jettySize=auto;html=1;exitX=1;exitY=0.5;exitDx=0;exitDy=0;entryX=0;entryY=0.5;entryDx=0;entryDy=0;" parent="1" source="CQxPOnlC6T6cqwi_Hm7u-2" target="CQxPOnlC6T6cqwi_Hm7u-16" edge="1">
          <mxGeometry relative="1" as="geometry" />
        </mxCell>
        <mxCell id="CQxPOnlC6T6cqwi_Hm7u-2" value="&lt;font style=&quot;font-size: 18px&quot;&gt;&lt;b&gt;Controller&lt;/b&gt;&lt;/font&gt;" style="rounded=0;whiteSpace=wrap;html=1;fillColor=#B9E0A5;" parent="1" vertex="1">
          <mxGeometry x="270" y="390" width="106" height="50" as="geometry" />
        </mxCell>
        <mxCell id="CQxPOnlC6T6cqwi_Hm7u-8" style="edgeStyle=orthogonalEdgeStyle;rounded=0;orthogonalLoop=1;jettySize=auto;html=1;startArrow=none;" parent="1" source="CQxPOnlC6T6cqwi_Hm7u-22" target="CQxPOnlC6T6cqwi_Hm7u-2" edge="1">
          <mxGeometry relative="1" as="geometry" />
        </mxCell>
        <mxCell id="CQxPOnlC6T6cqwi_Hm7u-9" value="&lt;div style=&quot;font-size: 15px;&quot;&gt;&lt;b&gt;&lt;font style=&quot;font-size: 15px;&quot;&gt;Reference&lt;/font&gt;&lt;/b&gt;&lt;/div&gt;&lt;div style=&quot;font-size: 15px;&quot;&gt;&lt;b&gt;&lt;font style=&quot;font-size: 15px;&quot;&gt;&lt;font style=&quot;font-size: 15px;&quot;&gt;input r&lt;/font&gt;&lt;font style=&quot;font-size: 15px;&quot;&gt;(t)&lt;br&gt;&lt;/font&gt;&lt;/font&gt;&lt;/b&gt;&lt;/div&gt;" style="shape=note;whiteSpace=wrap;html=1;backgroundOutline=1;darkOpacity=0.05;fillColor=#FFE599;strokeColor=#FFFFFF;" parent="1" vertex="1">
          <mxGeometry x="80" y="377.5" width="74" height="75" as="geometry" />
        </mxCell>
        <mxCell id="CQxPOnlC6T6cqwi_Hm7u-11" value="&lt;div style=&quot;font-size: 15px;&quot;&gt;&lt;b&gt;&lt;font style=&quot;font-size: 15px;&quot;&gt;control &lt;br&gt;&lt;/font&gt;&lt;/b&gt;&lt;/div&gt;&lt;div style=&quot;font-size: 15px;&quot;&gt;&lt;b&gt;&lt;font style=&quot;font-size: 15px;&quot;&gt;u(t)&lt;/font&gt;&lt;/b&gt;&lt;/div&gt;" style="text;html=1;strokeColor=none;fillColor=none;align=center;verticalAlign=middle;whiteSpace=wrap;rounded=0;" parent="1" vertex="1">
          <mxGeometry x="376" y="372.5" width="90" height="47.5" as="geometry" />
        </mxCell>
        <mxCell id="CQxPOnlC6T6cqwi_Hm7u-16" value="&lt;font style=&quot;font-size: 18px&quot;&gt;&lt;b&gt;Plant&lt;/b&gt;&lt;/font&gt;" style="rounded=0;whiteSpace=wrap;html=1;fillColor=#B9E0A5;" parent="1" vertex="1">
          <mxGeometry x="474" y="390" width="100" height="50" as="geometry" />
        </mxCell>
        <mxCell id="CQxPOnlC6T6cqwi_Hm7u-17" style="edgeStyle=orthogonalEdgeStyle;rounded=0;orthogonalLoop=1;jettySize=auto;html=1;exitX=1;exitY=0.25;exitDx=0;exitDy=0;" parent="1" edge="1">
          <mxGeometry relative="1" as="geometry">
            <mxPoint x="631" y="415" as="targetPoint" />
            <mxPoint x="576" y="414.5" as="sourcePoint" />
            <Array as="points">
              <mxPoint x="601" y="415" />
              <mxPoint x="601" y="415" />
            </Array>
          </mxGeometry>
        </mxCell>
        <mxCell id="CQxPOnlC6T6cqwi_Hm7u-18" value="&lt;div style=&quot;font-size: 15px;&quot;&gt;&lt;b&gt;&lt;font style=&quot;font-size: 15px;&quot;&gt;Output&lt;/font&gt;&lt;/b&gt;&lt;/div&gt;&lt;div style=&quot;font-size: 15px;&quot;&gt;&lt;b&gt;&lt;font style=&quot;font-size: 15px;&quot;&gt;&lt;font style=&quot;font-size: 15px;&quot;&gt;y&lt;/font&gt;&lt;font style=&quot;font-size: 15px;&quot;&gt;(t)&lt;br&gt;&lt;/font&gt;&lt;/font&gt;&lt;/b&gt;&lt;/div&gt;" style="shape=note;whiteSpace=wrap;html=1;backgroundOutline=1;darkOpacity=0.05;fillColor=#FFE599;strokeColor=#FFFFFF;" parent="1" vertex="1">
          <mxGeometry x="630" y="377.5" width="74" height="75" as="geometry" />
        </mxCell>
        <mxCell id="CQxPOnlC6T6cqwi_Hm7u-21" value="" style="edgeStyle=elbowEdgeStyle;elbow=vertical;endArrow=classic;html=1;rounded=0;fontSize=14;" parent="1" target="CQxPOnlC6T6cqwi_Hm7u-22" edge="1">
          <mxGeometry width="50" height="50" relative="1" as="geometry">
            <mxPoint x="600" y="415" as="sourcePoint" />
            <mxPoint x="220" y="430" as="targetPoint" />
            <Array as="points">
              <mxPoint x="380" y="480" />
              <mxPoint x="630" y="500" />
            </Array>
          </mxGeometry>
        </mxCell>
        <mxCell id="CQxPOnlC6T6cqwi_Hm7u-22" value="" style="ellipse;whiteSpace=wrap;html=1;aspect=fixed;fontSize=14;" parent="1" vertex="1">
          <mxGeometry x="180" y="400" width="30" height="30" as="geometry" />
        </mxCell>
        <mxCell id="CQxPOnlC6T6cqwi_Hm7u-23" value="" style="edgeStyle=orthogonalEdgeStyle;rounded=0;orthogonalLoop=1;jettySize=auto;html=1;endArrow=none;" parent="1" source="CQxPOnlC6T6cqwi_Hm7u-9" target="CQxPOnlC6T6cqwi_Hm7u-22" edge="1">
          <mxGeometry relative="1" as="geometry">
            <mxPoint x="184" y="415" as="sourcePoint" />
            <mxPoint x="260" y="415" as="targetPoint" />
          </mxGeometry>
        </mxCell>
        <mxCell id="CQxPOnlC6T6cqwi_Hm7u-25" value="-" style="text;html=1;align=center;verticalAlign=middle;resizable=0;points=[];autosize=1;strokeColor=none;fillColor=none;fontSize=14;" parent="1" vertex="1">
          <mxGeometry x="200" y="430" width="20" height="20" as="geometry" />
        </mxCell>
        <mxCell id="CQxPOnlC6T6cqwi_Hm7u-26" value="+" style="text;html=1;align=center;verticalAlign=middle;resizable=0;points=[];autosize=1;strokeColor=none;fillColor=none;fontSize=14;" parent="1" vertex="1">
          <mxGeometry x="160" y="390" width="20" height="20" as="geometry" />
        </mxCell>
        <mxCell id="A3bv157hwep6GjE0_Uo--1" value="&lt;div style=&quot;font-size: 15px;&quot;&gt;&lt;b&gt;&lt;font style=&quot;font-size: 15px;&quot;&gt;error&lt;/font&gt;&lt;/b&gt;&lt;/div&gt;&lt;div style=&quot;font-size: 15px;&quot;&gt;&lt;b&gt;&lt;font style=&quot;font-size: 15px;&quot;&gt;&lt;font style=&quot;font-size: 15px;&quot;&gt;e(t)&lt;/font&gt;&lt;font style=&quot;font-size: 15px;&quot;&gt;&lt;br&gt;&lt;/font&gt;&lt;/font&gt;&lt;/b&gt;&lt;/div&gt;" style="text;html=1;strokeColor=none;fillColor=none;align=center;verticalAlign=middle;whiteSpace=wrap;rounded=0;" vertex="1" parent="1">
          <mxGeometry x="190" y="372.5" width="90" height="47.5" as="geometry" />
        </mxCell>
      </root>
    </mxGraphModel>
  </diagram>
</mxfile>
